<svg xmlns="http://www.w3.org/2000/svg" viewBox="0 0 1920 1080" preserveAspectRatio="xMidYMid slice">
  <defs>
    <radialGradient id="v" cx="50%" cy="50%" r="70%">
      <stop offset="0" stop-color="#f7d989" stop-opacity=".95"/>
      <stop offset=".42" stop-color="#8a5430"/>
      <stop offset="1" stop-color="#100b08"/>
    </radialGradient>
    <linearGradient id="gold" x1="0" x2="1"><stop stop-color="#6e421c"/><stop offset=".5" stop-color="#ffe28a"/><stop offset="1" stop-color="#8d551c"/></linearGradient>
    <filter id="soft"><feGaussianBlur stdDeviation="2.2"/></filter>
    <filter id="shadow"><feDropShadow dx="0" dy="8" stdDeviation="7" flood-color="#000" flood-opacity=".55"/></filter>
    <pattern id="thread" width="18" height="18" patternUnits="userSpaceOnUse" patternTransform="rotate(8)">
      <path d="M0 9h18M9 0v18" stroke="#f2dfb0" stroke-opacity=".12" stroke-width="2"/>
    </pattern>
  </defs>
  <rect width="1920" height="1080" fill="#160f0b"/>
  <g transform="translate(930 520) rotate(-18) scale(1.13)">
    <ellipse rx="760" ry="455" fill="url(#v)"/>
    <ellipse rx="735" ry="430" fill="none" stroke="url(#gold)" stroke-width="26"/>
    <ellipse rx="650" ry="350" fill="none" stroke="#3a2115" stroke-width="18" opacity=".7"/>
    <ellipse rx="565" ry="280" fill="none" stroke="#f5d677" stroke-width="10" opacity=".8"/>
    <rect x="-760" y="-455" width="1520" height="910" fill="url(#thread)" opacity=".75" clip-path="ellipse(760px 455px at 760px 455px)"/>
    <g fill="none" stroke-linecap="round">
      <path d="M-620,-150 C-410,-255 -240,-245 -70,-130 C80,-28 230,-65 410,-180 C520,-250 625,-230 715,-160" stroke="#1f1410" stroke-width="18" opacity=".8"/>
      <path d="M-590,120 C-350,260 -120,225 65,88 C235,-38 420,0 650,160" stroke="#24140f" stroke-width="18" opacity=".75"/>
      <path d="M-525,-265 C-350,-345 -195,-340 -45,-255 C90,-178 250,-190 445,-305" stroke="#f1dfb3" stroke-width="18" opacity=".86"/>
      <path d="M-505,265 C-310,350 -112,330 58,222 C238,108 430,150 620,300" stroke="#f1dfb3" stroke-width="18" opacity=".82"/>
    </g>
    <g transform="rotate(5)" filter="url(#shadow)">
      <circle r="186" fill="#6e3d22" stroke="#f0d275" stroke-width="18"/>
      <circle r="136" fill="none" stroke="#f7e2aa" stroke-width="16"/>
      <circle r="86" fill="#f1dba0" stroke="#7a411e" stroke-width="12"/>
      <path d="M-36,-46 C10,-80 72,-45 48,0 C28,40 -28,28 -16,72 C-6,106 60,78 76,34" fill="none" stroke="#9f201b" stroke-width="30" stroke-linecap="round"/>
      <g stroke="#f7e5b7" stroke-width="18" fill="none">
        <path d="M-180,-30 C-245,-85 -290,-55 -275,0 C-262,48 -220,48 -180,25"/>
        <path d="M180,-30 C245,-85 290,-55 275,0 C262,48 220,48 180,25"/>
        <path d="M-130,132 C-205,170 -205,220 -138,226"/>
        <path d="M130,132 C205,170 205,220 138,226"/>
      </g>
    </g>
  </g>
  <g stroke="url(#gold)" stroke-width="10" fill="none" opacity=".82" filter="url(#soft)">
    <path d="M-80 120 C430 60 900 15 2010 120"/>
    <path d="M-120 850 C350 690 970 660 2040 780"/>
    <path d="M1600 -80 C1530 180 1620 505 1990 710"/>
  </g>
  <rect width="1920" height="1080" fill="url(#v)" opacity=".12"/>
  <radialGradient id="shade" cx="52%" cy="48%" r="75%"><stop offset=".45" stop-color="#000" stop-opacity="0"/><stop offset="1" stop-color="#000" stop-opacity=".82"/></radialGradient>
  <rect width="1920" height="1080" fill="url(#shade)"/>
</svg>
